<?xml version="1.0" encoding="UTF-8"?>
<svg version="1.1" xmlns="http://www.w3.org/2000/svg" width="500" height="250">
<path d="M0 0 C3.54870499 1.93078895 6.85962002 4.15126357 10.1875 6.4375 C11.95071848 7.62533899 13.71500172 8.81159934 15.48046875 9.99609375 C16.25285889 10.52388428 17.02524902 11.0516748 17.82104492 11.59545898 C18.5401001 12.05895752 19.25915527 12.52245605 20 13 C20.67281006 13.43465576 21.34562012 13.86931152 22.03881836 14.31713867 C23.99852548 15.23378218 23.99852548 15.23378218 25.91943359 14.28076172 C26.57250488 13.83490723 27.22557617 13.38905273 27.8984375 12.9296875 C28.62546875 12.445 29.3525 11.9603125 30.1015625 11.4609375 C30.85179687 10.93757813 31.60203125 10.41421875 32.375 9.875 C33.48875 9.12476563 33.48875 9.12476563 34.625 8.359375 C38.71751299 5.60889639 38.71751299 5.60889639 42.70019531 2.70410156 C46.42211526 -0.06054914 46.42211526 -0.06054914 49.43261719 0.25488281 C51.99248561 0.99781914 53.66868287 1.84668584 55.8515625 3.3515625 C56.97582642 4.11496948 56.97582642 4.11496948 58.12280273 4.89379883 C58.94852783 5.46509521 59.77425293 6.0363916 60.625 6.625 C62.52370467 7.91428583 64.42352724 9.20192625 66.32421875 10.48828125 C67.3817334 11.20580566 68.43924805 11.92333008 69.52880859 12.66259766 C75.39078132 16.62260445 81.31561756 20.488147 87.23181152 24.36642456 C90.22091511 26.32611621 93.20845361 28.28818772 96.19607544 30.25013733 C98.52917089 31.78221558 100.86247306 33.31397864 103.19580078 34.84570312 C142.83521504 60.86968598 142.83521504 60.86968598 158.75 71.4375 C159.58901855 71.99252197 160.42803711 72.54754395 161.29248047 73.11938477 C162.03643066 73.61494873 162.78038086 74.1105127 163.546875 74.62109375 C164.17432617 75.0380249 164.80177734 75.45495605 165.44824219 75.88452148 C167 77 167 77 169 79 C168.625 81.125 168.625 81.125 168 83 C164.23692456 83.23463308 162.23812822 82.90177452 159.1484375 80.74609375 C158.02417358 79.97785278 158.02417358 79.97785278 156.87719727 79.1940918 C156.05147217 78.6144165 155.22574707 78.03474121 154.375 77.4375 C152.47648282 76.13883617 150.57664521 74.84210141 148.67578125 73.546875 C147.6182666 72.82306641 146.56075195 72.09925781 145.47119141 71.35351562 C139.62077672 67.37041558 133.68834103 63.51013405 127.76791382 59.6322937 C124.01006628 57.17048159 120.25524948 54.70405381 116.5 52.23828125 C115.34572762 51.48062218 115.34572762 51.48062218 114.1681366 50.70765686 C108.4424572 46.94892893 102.72043355 43.18467473 97 39.41796875 C73.04368793 23.64217226 73.04368793 23.64217226 49 8 C39.84250422 13.24802283 39.84250422 13.24802283 31 19 C34.14942406 22.45195494 37.65275689 24.80222315 41.625 27.1875 C48.98669792 31.69791536 56.22250382 36.38388505 63.4375 41.125 C72.19100634 46.87367622 80.97904524 52.56196237 89.8125 58.1875 C100.9798723 65.30332208 112.01754896 72.60247597 123 80 C122.67 81.65 122.34 83.3 122 85 C117.24908373 84.48697997 114.27837365 83.22251821 110.32421875 80.5703125 C109.25743896 79.86277832 108.19065918 79.15524414 107.09155273 78.42626953 C105.95679447 77.65928918 104.82211179 76.89219701 103.6875 76.125 C102.513828 75.34249755 101.33942396 74.561092 100.16430664 73.78076172 C97.8352232 72.2330299 95.50917879 70.68090315 93.18554688 69.125 C89.12815331 66.41841251 85.03931479 63.76357125 80.9375 61.125 C79.59885981 60.26056922 78.26031659 59.39598825 76.921875 58.53125 C76.27669922 58.11488281 75.63152344 57.69851562 74.96679688 57.26953125 C71.53892983 55.05690605 68.11312642 52.84109208 64.6875 50.625 C63.99325928 50.17592285 63.29901855 49.7268457 62.58374023 49.26416016 C56.19705341 45.13103948 49.81940876 40.98405568 43.44213867 36.83642578 C37.45449805 32.94304706 31.4644242 29.05343837 25.45996094 25.18603516 C21.51112761 22.63951286 17.58385269 20.0637888 13.671875 17.4609375 C12.31932617 16.56665039 12.31932617 16.56665039 10.93945312 15.65429688 C9.18384251 14.49281447 7.43232759 13.32511064 5.68554688 12.15039062 C4.88697266 11.62380859 4.08839844 11.09722656 3.265625 10.5546875 C2.56211914 10.08530762 1.85861328 9.61592773 1.13378906 9.13232422 C-1.29986277 7.84087374 -3.25773346 7.26376419 -6 7 C-8.45402921 8.31768071 -10.51767132 9.62382577 -12.75 11.25 C-14.09016791 12.18499701 -15.43135241 13.11853823 -16.7734375 14.05078125 C-17.46791992 14.53885254 -18.16240234 15.02692383 -18.87792969 15.52978516 C-22.32278345 17.91645213 -25.84806305 20.17469086 -29.375 22.4375 C-30.81394104 23.36567002 -32.25274235 24.29405672 -33.69140625 25.22265625 C-34.40570801 25.6830127 -35.12000977 26.14336914 -35.85595703 26.61767578 C-39.34386039 28.86642422 -42.82826793 31.12056888 -46.3125 33.375 C-47.35253174 34.04776978 -47.35253174 34.04776978 -48.41357422 34.73413086 C-53.94730684 38.31519041 -59.47434173 41.90649734 -65 45.5 C-78.64220767 54.371427 -92.30511609 63.21009829 -106 72 C-105.4225 72.43183594 -104.845 72.86367187 -104.25 73.30859375 C-103.5075 73.86675781 -102.765 74.42492187 -102 75 C-101.34 75.48597656 -100.68 75.97195312 -100 76.47265625 C-93.2367508 81.84891098 -90.70613196 87.1303048 -89.47265625 95.63671875 C-87.8843808 111.46232688 -91.3518005 126.69881376 -95 142 C-94.71914551 141.25129639 -94.43829102 140.50259277 -94.14892578 139.73120117 C-74.55627625 87.83253783 -74.55627625 87.83253783 -60 81 C-55.51612685 79.79525828 -52.29816465 79.36472794 -48.0625 81.4375 C-42.98631523 87.74427501 -43.69068095 96.0272689 -44.31640625 103.6796875 C-45.4432965 113.8316021 -48.02406185 123.79711109 -50.28857422 133.74121094 C-51.3213122 138.47181716 -52.18329085 143.22790376 -53 148 C-52.70867187 147.32122803 -52.41734375 146.64245605 -52.1171875 145.94311523 C-31.94827626 99.10827123 -31.94827626 99.10827123 -17 92 C-13.09500076 90.76388513 -10.07484808 90.57006077 -6.1875 92.125 C-3.09679388 94.77417668 -1.35646567 96.83077596 -0.6796875 100.94921875 C0.05328355 115.33988377 -6.2168672 130.15112669 -10.82592773 143.47045898 C-13.58633261 151.48810855 -16.27527869 159.31409864 -16.3125 167.875 C-16.33763672 169.23238281 -16.33763672 169.23238281 -16.36328125 170.6171875 C-15.93787834 173.40746465 -15.17098539 174.27008552 -13 176 C-6.98324094 173.32588486 -5.54502435 168.62538607 -3.109375 162.91015625 C-0.77149665 157.74899261 1.94378559 153.78764673 7 151 C13.43598531 149.1581907 18.19384809 149.84448266 24 153 C24.33 152.34 24.66 151.68 25 151 C28.3 151 31.6 151 35 151 C34.51027323 157.66028404 33.40604015 163.76222625 31.69921875 170.21484375 C30.88027978 173.47687438 30.37932943 176.66190104 30 180 C31.11375 178.7934375 31.11375 178.7934375 32.25 177.5625 C34.88840752 175.1039839 35.67485839 174.6181353 39 174 C40.26305335 168.92523206 41.27036084 164.27203646 41 159 C39.68 160.65 38.36 162.3 37 164 C36.01 163.67 35.02 163.34 34 163 C37.02576952 157.0648367 40.01974132 152.29589818 46.6875 150.125 C49 150 49 150 52 151 C52.73046875 152.84765625 52.73046875 152.84765625 53.1875 155.0625 C53.34605469 155.79597656 53.50460937 156.52945313 53.66796875 157.28515625 C53.77753906 157.85105469 53.88710938 158.41695312 54 159 C54.79664063 158.27683594 54.79664063 158.27683594 55.609375 157.5390625 C56.66898437 156.59160156 56.66898437 156.59160156 57.75 155.625 C58.79414063 154.68527344 58.79414063 154.68527344 59.859375 153.7265625 C62.88317055 151.28766171 65.14987373 150.12397675 69 149.5625 C72 150 72 150 74.4375 151.8125 C76.82155414 156.67597044 75.84501273 160.77023619 75 166 C74.82597656 167.11632812 74.65195312 168.23265625 74.47265625 169.3828125 C74.00668178 172.26028989 73.51570484 175.13107892 73 178 C75.64135176 175.35864824 75.28652037 173.92841279 75.4375 170.25 C75.88335151 163.92495406 77.14917105 160.21071236 81.25 155.3125 C86.78582594 150.65737364 91.74338882 149.66650647 98.765625 149.69921875 C101 150 101 150 104 152 C106.48036231 142.98669678 108.77414915 133.93561583 110.98046875 124.8515625 C111.24086945 123.77992859 111.50127014 122.70829468 111.76956177 121.60418701 C112.854769 117.13226257 113.93776098 112.65981153 115.01733398 108.18652344 C115.81445838 104.88661255 116.61590668 101.58777615 117.41796875 98.2890625 C117.6627446 97.26946442 117.90752045 96.24986633 118.15971375 95.19937134 C118.38697647 94.2668454 118.6142392 93.33431946 118.84838867 92.37353516 C119.04728195 91.5505191 119.24617523 90.72750305 119.45109558 89.87954712 C120 88 120 88 121 87 C124.00003445 86.85822143 126.99757235 86.95771229 130 87 C129.48324767 94.74188337 127.96740313 102.02549264 126.09375 109.54296875 C125.66660706 111.2947216 125.66660706 111.2947216 125.23083496 113.0818634 C124.32692866 116.78533742 123.41408843 120.48652719 122.5 124.1875 C121.58712359 127.89946263 120.67624089 131.61188714 119.76916504 135.32527161 C119.20633084 137.62783398 118.64000685 139.92954695 118.06970215 142.23027039 C116.7832859 147.47830519 115.62365693 152.63052428 115 158 C115.9075 157.21625 116.815 156.4325 117.75 155.625 C122.27235463 151.89511406 124.99743406 150.72715609 131 151 C132.84680342 155.57238318 133.09374514 158.54559043 132.1875 163.375 C131.98769531 164.50035156 131.78789062 165.62570313 131.58203125 166.78515625 C131.29392578 168.37650391 131.29392578 168.37650391 131 170 C130.6307898 172.66387143 130.31423799 175.32897707 130 178 C130.48210937 177.6390625 130.96421875 177.278125 131.4609375 176.90625 C132.09257812 176.4421875 132.72421875 175.978125 133.375 175.5 C134.00148438 175.0359375 134.62796875 174.571875 135.2734375 174.09375 C137 173 137 173 139 173 C139.268125 172.46375 139.53625 171.9275 139.8125 171.375 C141.90625 167.1875 141.90625 167.1875 144 163 C143.360625 162.71125 142.72125 162.4225 142.0625 162.125 C140 161 140 161 139 159 C138.54334764 152.72103004 138.54334764 152.72103004 140.1875 150.125 C142.63483251 148.60596603 144.08811916 148 147 148 C149.875 149.875 149.875 149.875 152 153 C153.06808267 166.03060853 141.54403525 182.16331404 133.73828125 191.7890625 C125.38999077 201.36544861 125.38999077 201.36544861 119.68359375 202.43359375 C115.96983607 202.44005246 113.66269901 202.40408476 110.4375 200.4375 C108.44534614 197.05949997 108.43985871 194.85097134 109 191 C111.23320602 188.33733129 112.6200117 188.04652918 116.0625 187.625 C119 188 119 188 120.8125 189.1875 C122.27538036 191.42031739 122.64505955 193.37344067 123 196 C128.65728428 191.8605237 132.17376609 186.82991261 136 181 C132.96410548 181.89893903 132.96410548 181.89893903 130.3125 183.5625 C126.01697832 185.42659431 123.64905428 185.60971204 119 185 C117 182.5 117 182.5 116 180 C115.2575 180.9590625 115.2575 180.9590625 114.5 181.9375 C111.58256301 184.34438551 109.67944035 184.91742872 105.97265625 185.25 C102.56339037 184.81793462 101.01735188 182.58473209 99 180 C97.8553125 180.9590625 97.8553125 180.9590625 96.6875 181.9375 C92.4885654 185.15993818 89.20289002 185.44092288 84 185 C80.75 183 80.75 183 78 181 C75.00891165 180.68263029 75.00891165 180.68263029 73.25 182.4375 C70.17389108 184.57368675 67.71038982 184.86507673 64 185 C62.30859375 183.7421875 62.30859375 183.7421875 61 182 C60.18177097 173.81770968 62.24081168 165.94776152 64 158 C58.31790827 159.73484104 56.62213556 162.92383554 53.64453125 167.828125 C51.49236284 171.97910065 50.0497098 176.18837294 48.7265625 180.6640625 C48 183 48 183 47 184 C45.31391034 184.07205511 43.62499341 184.08386068 41.9375 184.0625 C41.01839844 184.05347656 40.09929687 184.04445312 39.15234375 184.03515625 C38.44207031 184.02355469 37.73179687 184.01195312 37 184 C37 182.35 37 180.7 37 179 C36.57589844 179.42152344 36.15179688 179.84304687 35.71484375 180.27734375 C31.66638373 184.05887234 28.80180749 186.11157322 23 186 C20.85139927 184.49597949 20.16447508 183.32895015 19 181 C18.401875 181.639375 17.80375 182.27875 17.1875 182.9375 C13.75842128 186.17063136 10.60701892 186.29545822 5.9921875 186.2109375 C2.9731055 185.89126999 1.32208775 184.93507312 -1 183 C-3.3125 179.8125 -3.3125 179.8125 -5 177 C-5.48210937 177.42152344 -5.96421875 177.84304687 -6.4609375 178.27734375 C-7.09257812 178.82519531 -7.72421875 179.37304688 -8.375 179.9375 C-9.00148437 180.48277344 -9.62796875 181.02804688 -10.2734375 181.58984375 C-13.85536933 184.51535821 -17.03007982 184.32795451 -21.515625 184.2890625 C-25.00210977 183.88340232 -26.70043595 182.59628199 -29 180 C-33.37713407 166.86859779 -27.86482002 152.70414662 -23.80078125 140.25 C-23.40366943 139.02885498 -23.00655762 137.80770996 -22.59741211 136.54956055 C-21.80027669 134.1126219 -20.99296642 131.67898097 -20.17407227 129.24926758 C-15.38684811 114.8778332 -15.38684811 114.8778332 -16 100 C-18.95722245 98.630275 -18.95722245 98.630275 -21.48046875 100.171875 C-43.5784004 116.20572308 -52.20678977 159.30068757 -61 184 C-65.29 184 -69.58 184 -74 184 C-73.23816406 181.14794922 -73.23816406 181.14794922 -72.4609375 178.23828125 C-66.57123338 155.96195826 -61.06537667 133.63067273 -58.0625 110.75 C-57.86950317 109.31346069 -57.86950317 109.31346069 -57.67260742 107.84790039 C-56.94567531 101.72168139 -56.15240579 94.69518841 -59 89 C-62.18125068 88.92240852 -64.27610553 89.34866372 -66.67578125 91.5078125 C-87.15335225 116.2691972 -95.01030403 154.13301119 -105 184 C-109.29 184 -113.58 184 -118 184 C-117.75354736 183.13125244 -117.50709473 182.26250488 -117.25317383 181.36743164 C-112.08110597 163.03887846 -107.24643189 144.78755487 -104 126 C-103.87012695 125.27232422 -103.74025391 124.54464844 -103.60644531 123.79492188 C-102.28310244 116.21072156 -101.79727688 108.68438195 -101.6875 101 C-101.66079224 99.81494873 -101.66079224 99.81494873 -101.63354492 98.60595703 C-101.64269384 91.99480903 -103.10397508 87.4226985 -107.25 82.125 C-110.7879285 79.39114616 -112.51206611 78.77560331 -117 79 C-119.43684956 80.41940206 -121.59666167 81.97708381 -123.7890625 83.75 C-126 85 -126 85 -128.7734375 84.6875 C-129.50820312 84.460625 -130.24296875 84.23375 -131 84 C-131 83.34 -131 82.68 -131 82 C-139.73157556 87.82105037 -143.29848643 97.94478311 -145.46875 107.87890625 C-148.20201781 123.93685461 -147.48333913 140.38014175 -138.4453125 154.4140625 C-136.17245625 157.5236917 -133.75976207 160.31372271 -131 163 C-132.485 163.99 -132.485 163.99 -134 165 C-144.97494451 157.09803995 -148.27507503 144.67439462 -151 132 C-153.69686908 115.39014406 -151.0696696 99.70893237 -141.40625 85.6875 C-136.37904802 79.42721074 -129.94807269 75.34583708 -122.37890625 72.765625 C-116.72937793 70.70335148 -111.88414916 67.33771291 -106.875 64.0625 C-105.91207031 63.44181641 -104.94914062 62.82113281 -103.95703125 62.18164062 C-101.2979367 60.46438493 -98.64517681 58.73861033 -96 57 C-94.91960449 56.43998291 -93.83920898 55.87996582 -92.72607422 55.30297852 C-89.63220596 53.17463102 -89.63220596 53.17463102 -89.25878906 49.27294922 C-89.23144092 47.783778 -89.23553463 46.29380583 -89.265625 44.8046875 C-89.25666199 44.01603302 -89.24769897 43.22737854 -89.23846436 42.41482544 C-89.21437974 39.90078374 -89.2302801 37.38904732 -89.25 34.875 C-89.24855939 32.35441909 -89.23873383 29.83425247 -89.21868896 27.31375122 C-89.2084593 25.74678687 -89.2102574 24.17968934 -89.22515869 22.61276245 C-89.22132251 17.22132251 -89.22132251 17.22132251 -87 15 C-84.40209961 14.75708008 -84.40209961 14.75708008 -81.15234375 14.76953125 C-79.99025391 14.77146484 -78.82816406 14.77339844 -77.63085938 14.77539062 C-76.41205078 14.78763672 -75.19324219 14.79988281 -73.9375 14.8125 C-72.10348633 14.8134668 -72.10348633 14.8134668 -70.23242188 14.81445312 C-61.14011056 14.85988944 -61.14011056 14.85988944 -60 16 C-59.76298761 18.85877909 -59.57780818 21.69883297 -59.4375 24.5625 C-59.39431641 25.36880859 -59.35113281 26.17511719 -59.30664062 27.00585938 C-59.20024738 29.00368805 -59.09959112 31.0018207 -59 33 C-53.33155839 29.33607207 -47.66515527 25.66900711 -42 22 C-41.16629883 21.46020508 -40.33259766 20.92041016 -39.47363281 20.36425781 C-37.78527216 19.27063834 -36.09736648 18.17631616 -34.40991211 17.08129883 C-32.71948584 15.98511853 -31.02758742 14.8912051 -29.33422852 13.79956055 C-25.38277923 11.24328303 -21.47421485 8.65396023 -17.64453125 5.91796875 C-16.97244629 5.44496338 -16.30036133 4.97195801 -15.60791016 4.48461914 C-14.37040009 3.60848215 -13.14371596 2.71674623 -11.93115234 1.80639648 C-7.57448683 -1.25626674 -5.05412817 -1.57676057 0 0 Z M-82 21 C-82 29.91 -82 38.82 -82 48 C-73.4588527 43.96633793 -73.4588527 43.96633793 -66 38 C-65.42646869 35.05127627 -65.52640833 32.23887014 -65.6875 29.25 C-65.71005859 28.45722656 -65.73261719 27.66445313 -65.75585938 26.84765625 C-65.81459529 24.8976238 -65.90427346 22.94856688 -66 21 C-71.28 21 -76.56 21 -82 21 Z M-97 145 C-96 148 -96 148 -96 148 Z M-55 151 C-54 153 -54 153 -54 153 Z M92.5 155.8125 C88.02473034 160.67571874 86.27468291 167.52785383 85.5625 173.9375 C86.02817307 177.19721149 86.74162136 178.64752225 89 181 C93.1005173 180.14175219 95.31777728 179.02726851 97.75 175.6875 C101.57794982 169.68094209 103.13180021 164.1802379 102 157 C100.83137001 155.11762313 100.83137001 155.11762313 99 154 C95.02508949 153.60868829 95.02508949 153.60868829 92.5 155.8125 Z M10.0703125 159.3125 C6.35319896 165.17305858 6.09226551 172.23591397 7 179 C8.39829867 180.86032441 8.39829867 180.86032441 10 182 C13.42012751 181.04996458 14.88645743 180.13625109 17.1875 177.375 C20.57844771 171.06082151 21.48271328 165.12002081 21 158 C19.36387504 154.81199284 19.36387504 154.81199284 16.6875 154.4375 C13.36358317 155.13320352 12.05447171 156.61703843 10.0703125 159.3125 Z M120 158 C117.03 160.475 117.03 160.475 114 163 C113.67 162.34 113.34 161.68 113 161 C112.34 166.61 111.68 172.22 111 178 C115.11295988 176.45624577 115.11295988 176.45624577 116.25 173.375 C116.4975 172.59125 116.745 171.8075 117 171 C117.66 171 118.32 171 119 171 C119.36552803 169.58622218 119.71695495 168.16879424 120.0625 166.75 C120.25972656 165.96109375 120.45695312 165.1721875 120.66015625 164.359375 C121.01497267 161.89605178 120.76877544 160.34395868 120 158 Z " fill="#E78549" transform="translate(234,12)"/>
<path d="M0 0 C2 3 2 3 1.75 5.625 C1.5025 6.40875 1.255 7.1925 1 8 C-2.01324195 9.50662097 -4.68286377 9.17770373 -8 9 C-10 7 -10 7 -10.125 4.4375 C-10.08375 3.633125 -10.0425 2.82875 -10 2 C-10 1.67 -10 1.34 -10 1 C-12.52363988 1.62533375 -12.52363988 1.62533375 -15 3 C-15.89386164 5.54775306 -15.89386164 5.54775306 -16 8 C-15.11248047 8.25523437 -15.11248047 8.25523437 -14.20703125 8.515625 C-9.3842671 9.9947109 -5.70144002 11.41422998 -2 15 C-0.46785112 18.06429776 -0.77061452 20.6165642 -1 24 C-2.63005856 28.12308929 -5.04478669 30.17266847 -8.98046875 32.2109375 C-15.40956178 34.72288487 -21.62373569 34.41858301 -28 32 C-30.39455715 29.31519349 -31.02292276 27.96275593 -30.9375 24.375 C-29.74788158 21.36130001 -28.93851805 20.3919296 -26 19 C-19.56363636 19.43636364 -19.56363636 19.43636364 -18 21 C-17.875 24 -17.875 24 -18 27 C-18.33 27.33 -18.66 27.66 -19 28 C-14.85906302 28.20970559 -14.85906302 28.20970559 -11 27 C-10.34227572 23.97065509 -10.34227572 23.97065509 -10 21 C-10.59167969 20.82984375 -11.18335938 20.6596875 -11.79296875 20.484375 C-21.0182068 17.65510134 -21.0182068 17.65510134 -24 14 C-24.88362547 10.17339055 -24.85090676 6.70541906 -23.078125 3.15234375 C-17.27731095 -4.51301767 -7.73869005 -4.85917747 0 0 Z " fill="#E18349" transform="translate(419,164)"/>
<path d="M0 0 C7.75129534 -1.14507772 7.75129534 -1.14507772 12 0 C15.52648894 3.95928531 17.7662263 8.21709631 20 13 C21.1254191 11.39612733 22.25031972 9.79189084 23.375 8.1875 C24.00148437 7.29417969 24.62796875 6.40085938 25.2734375 5.48046875 C26.53550239 3.66732122 27.77458808 1.83811789 29 0 C33.02590716 -0.41820365 36.94387531 -0.12945079 41 0 C41 6.93 41 13.86 41 21 C37.7 21 34.4 21 31 21 C30.67 18.03 30.34 15.06 30 12 C28.35 14.97 26.7 17.94 25 21 C22.03 21 19.06 21 16 21 C14.35 18.03 12.7 15.06 11 12 C10.67 14.97 10.34 17.94 10 21 C6.7 21 3.4 21 0 21 C0 14.07 0 7.14 0 0 Z " fill="#EA884B" transform="translate(175,215)"/>
<path d="M0 0 C2.31 0 4.62 0 7 0 C5.84826645 2.46800047 4.95216435 4.04783565 3 6 C3.61488281 6.24234375 4.22976562 6.4846875 4.86328125 6.734375 C8.20041515 8.11819448 11.25529123 9.39069283 14.0625 11.6875 C15.58675868 15.44733808 15.63356493 19.01352402 15 23 C13.15603669 26.33331828 11.76346834 27.61826583 8.375 29.3125 C1.1159802 30.79118922 -4.75933375 30.69804897 -11.40625 27.265625 C-13.37975331 25.6984312 -14.09639342 24.34056143 -15 22 C-15.33536091 18.31103 -15.27629768 15.7151234 -13.9375 12.25 C-11.33526313 9.2280475 -8.74081949 8.26920661 -5 7 C-4.01 7 -3.02 7 -2 7 C-1.34 4.69 -0.68 2.38 0 0 Z M-5 16 C-5.33333333 18.5 -5.33333333 18.5 -5 21 C-3.05541686 23.3721969 -3.05541686 23.3721969 0.5 23.3125 C1.655 23.209375 2.81 23.10625 4 23 C6.31543207 20.23011924 6.31543207 20.23011924 5.6875 17.375 C5.2258486 15.06498035 5.2258486 15.06498035 4 14 C-1.02509316 13.45584266 -1.02509316 13.45584266 -5 16 Z " fill="#E88649" transform="translate(232,207)"/>
<path d="M0 0 C2.5 1.625 2.5 1.625 4.5 3.625 C4.5 4.615 4.5 5.605 4.5 6.625 C3.18 6.955 1.86 7.285 0.5 7.625 C1.16 7.99625 1.82 8.3675 2.5 8.75 C4.5 10.625 4.5 10.625 5.0625 13.5625 C4.5 16.625 4.5 16.625 2.1875 18.9375 C-2.89825337 22.13088002 -7.65619501 22.1248589 -13.5 21.625 C-17.44077058 20.28795284 -18.97456229 19.6519919 -20.875 15.9375 C-21.08125 15.174375 -21.2875 14.41125 -21.5 13.625 C-20.18 13.295 -18.86 12.965 -17.5 12.625 C-18.82 11.635 -20.14 10.645 -21.5 9.625 C-21.01020408 3.13520408 -21.01020408 3.13520408 -18.625 0.75 C-12.73385269 -2.36884269 -6.13535797 -2.4103192 0 0 Z M-10.5 5.625 C-10.5 5.955 -10.5 6.285 -10.5 6.625 C-8.85 6.625 -7.2 6.625 -5.5 6.625 C-5.5 6.295 -5.5 5.965 -5.5 5.625 C-7.15 5.625 -8.8 5.625 -10.5 5.625 Z M-10.5 13.625 C-10.5 13.955 -10.5 14.285 -10.5 14.625 C-8.85 14.625 -7.2 14.625 -5.5 14.625 C-5.5 14.295 -5.5 13.965 -5.5 13.625 C-7.15 13.625 -8.8 13.625 -10.5 13.625 Z " fill="#E18349" transform="translate(339.5,215.375)"/>
<path d="M0 0 C8.25 0 16.5 0 25 0 C25 1.65 25 3.3 25 5 C24 6 24 6 20.62109375 6.09765625 C19.22652923 6.09098369 17.83198257 6.07902532 16.4375 6.0625 C15.72658203 6.05798828 15.01566406 6.05347656 14.28320312 6.04882812 C12.52209987 6.03700864 10.76103964 6.01907263 9 6 C9 6.66 9 7.32 9 8 C13.29 8 17.58 8 22 8 C22 9.65 22 11.3 22 13 C17.71 13 13.42 13 9 13 C9 13.66 9 14.32 9 15 C10.14339844 14.98839844 11.28679687 14.97679687 12.46484375 14.96484375 C13.95572754 14.95546712 15.44661309 14.94636679 16.9375 14.9375 C18.06961914 14.92493164 18.06961914 14.92493164 19.22460938 14.91210938 C21.14994313 14.90347559 23.07535581 14.94775667 25 15 C26 16 26 16 26 21 C17.42 21 8.84 21 0 21 C0 14.07 0 7.14 0 0 Z " fill="#E18045" transform="translate(280,215)"/>
<path d="M0 0 C0.66 0.33 1.32 0.66 2 1 C1.62488281 1.4846875 1.24976562 1.969375 0.86328125 2.46875 C-11.24187929 18.3243759 -16.4709501 35.08556961 -14.53515625 55.171875 C-12.89787561 66.88380953 -7.96788141 78.08716346 1 86 C-0.485 86.99 -0.485 86.99 -2 88 C-12.97494451 80.09803995 -16.27507503 67.67439462 -19 55 C-21.53296059 39.3996467 -19.45172024 24.58171788 -11 11 C-7.76901533 6.67104001 -4.38873461 3.1526063 0 0 Z " fill="#C77645" transform="translate(102,89)"/>
<path d="M0 0 C3.3 0 6.6 0 10 0 C10.83790789 1.78953185 11.67019396 3.58169695 12.5 5.375 C12.9640625 6.37273437 13.428125 7.37046875 13.90625 8.3984375 C15 11 15 11 15 13 C15.66 13 16.32 13 17 13 C17.0825 12.34 17.165 11.68 17.25 11 C18.25926977 6.96292093 20.06480402 3.68311492 22 0 C25.3 0 28.6 0 32 0 C30.73167312 2.56376764 29.46043635 5.12602212 28.1875 7.6875 C27.83107422 8.40873047 27.47464844 9.12996094 27.10742188 9.87304688 C26.40480372 11.28472923 25.68870023 12.68978965 24.95849609 14.08740234 C23.88469678 16.14704981 23.88469678 16.14704981 22.86328125 19.01953125 C20.56888201 21.45823233 19.47983593 21.55963367 16.1953125 21.8984375 C12.95606182 21.73241266 11.51678461 21.49544571 9.15527344 19.23144531 C7.51933782 16.76663566 6.17949986 14.27977164 4.875 11.625 C4.39546875 10.73554688 3.9159375 9.84609375 3.421875 8.9296875 C0 2.47700893 0 2.47700893 0 0 Z " fill="#E9874A" transform="translate(247,215)"/>
<path d="M0 0 C0.66 0.33 1.32 0.66 2 1 C0.948125 2.2065625 0.948125 2.2065625 -0.125 3.4375 C-9.49091652 14.72395558 -16.27372012 27.79901669 -21.625 41.375 C-22.09719971 42.55296143 -22.56939941 43.73092285 -23.0559082 44.94458008 C-26.22507293 52.89796992 -29.28328779 60.87988229 -32 69 C-33.32 69 -34.64 69 -36 69 C-36 68.01 -36 67.02 -36 66 C-35.34 66 -34.68 66 -34 66 C-33.87939209 65.13463623 -33.75878418 64.26927246 -33.63452148 63.37768555 C-32.54814009 57.59465879 -30.21559653 52.27137191 -28.0625 46.8125 C-27.81801117 46.19183655 -27.57352234 45.5711731 -27.32162476 44.93170166 C-13.22483255 9.32146787 -13.22483255 9.32146787 0 0 Z " fill="#B86F43" transform="translate(172,94)"/>
<path d="M0 0 C3.3 0 6.6 0 10 0 C10 6.93 10 13.86 10 21 C6.7 21 3.4 21 0 21 C0 14.07 0 7.14 0 0 Z " fill="#DA7C43" transform="translate(307,215)"/>
<path d="M0 0 C3.3 0 6.6 0 10 0 C10 6.93 10 13.86 10 21 C6.7 21 3.4 21 0 21 C0 14.07 0 7.14 0 0 Z " fill="#E58347" transform="translate(163,215)"/>
<path d="M0 0 C2.19160022 1.59804183 2.90006611 2.5311435 3.46875 5.19921875 C3.55055589 11.71301289 2.37062853 16.07310966 -2 21 C-4.42077817 23.09524565 -6.67322399 25 -10 25 C-10 23.68 -10 22.36 -10 21 C-9.236875 20.54625 -8.47375 20.0925 -7.6875 19.625 C-4.3341356 17.59738432 -3.49892338 15.55008168 -2 12 C-2.94875 11.87625 -3.8975 11.7525 -4.875 11.625 C-8 11 -8 11 -10 9 C-10.3267107 5.92891945 -10.48138276 3.84949899 -8.9375 1.125 C-5.8930714 -0.64273274 -3.4368988 -0.36823916 0 0 Z " fill="#DF8349" transform="translate(390,96)"/>
<path d="M0 0 C0.66 0.33 1.32 0.66 2 1 C0.59869847 2.88479152 -0.80312854 4.75898161 -2.2890625 6.578125 C-8.19430724 13.96831432 -12.77776924 22.55553848 -17 31 C-19.5625 31.625 -19.5625 31.625 -22 32 C-10.49199085 7.60669336 -10.49199085 7.60669336 0 0 Z " fill="#CF7A46" transform="translate(213,106)"/>
<path d="M0 0 C0.66 0.33 1.32 0.66 2 1 C1.29875 1.804375 0.5975 2.60875 -0.125 3.4375 C-5.80596521 10.28338223 -10.15188264 17.89346665 -14.38671875 25.69140625 C-14.91910156 26.45324219 -15.45148438 27.21507813 -16 28 C-16.99 28 -17.98 28 -19 28 C-15.81522396 17.49336139 -9.41016412 6.15279962 0 0 Z " fill="#C57646" transform="translate(172,94)"/>
<path d="M0 0 C2.31 0 4.62 0 7 0 C5.84826645 2.46800047 4.95216435 4.04783565 3 6 C3.66 6.66 4.32 7.32 5 8 C1.7 8 -1.6 8 -5 8 C-4.01 7.67 -3.02 7.34 -2 7 C-0.77030122 3.48809191 -0.77030122 3.48809191 0 0 Z " fill="#955C39" transform="translate(232,207)"/>
<path d="M0 0 C0.8125 1.6875 0.8125 1.6875 1 4 C-1.65000743 7.10429441 -4.58251723 9.76095956 -8 12 C-8.66 12 -9.32 12 -10 12 C-10 10.68 -10 9.36 -10 8 C-7.8125 6.5625 -7.8125 6.5625 -5 5 C-3.2958946 3.37163262 -1.61974559 1.71230248 0 0 Z " fill="#D47C46" transform="translate(390,109)"/>
<path d="M0 0 C0.66 0.33 1.32 0.66 2 1 C-4.2293578 10.01223242 -4.2293578 10.01223242 -9 12 C-9.66 11.67 -10.32 11.34 -11 11 C-9.92173635 9.72486237 -8.83714481 8.45507431 -7.75 7.1875 C-7.14671875 6.47980469 -6.5434375 5.77210937 -5.921875 5.04296875 C-4.07629602 3.08110329 -2.20054668 1.54330375 0 0 Z " fill="#BC7041" transform="translate(102,89)"/>
<path d="M0 0 C0.66 0.33 1.32 0.66 2 1 C0.5 3 0.5 3 -1 5 C-1.45375 5.680625 -1.9075 6.36125 -2.375 7.0625 C-4.33759555 9.40251777 -6.26281249 10.66649839 -9 12 C-9.66 11.67 -10.32 11.34 -11 11 C-7.6189962 6.86378916 -4.33409466 3.18683431 0 0 Z " fill="#C07343" transform="translate(213,106)"/>
<path d="M0 0 C0.66 0 1.32 0 2 0 C1.4739075 3.78786597 0.61896089 6.17152224 -2 9 C-2.66 9 -3.32 9 -4 9 C-2.94124926 5.59687262 -1.99097846 2.98646769 0 0 Z " fill="#D37E4A" transform="translate(157,113)"/>
<path d="M0 0 C0.625 1.8125 0.625 1.8125 1 4 C0.01 5.485 0.01 5.485 -1 7 C-1.99 7 -2.98 7 -4 7 C-4 6.01 -4 5.02 -4 4 C-3.34 4 -2.68 4 -2 4 C-2 3.01 -2 2.02 -2 1 C-1.34 0.67 -0.68 0.34 0 0 Z " fill="#AF6A3F" transform="translate(140,156)"/>
<path d="M0 0 C0.66 0 1.32 0 2 0 C1.67 2.31 1.34 4.62 1 7 C0.01 7 -0.98 7 -2 7 C-1.125 2.25 -1.125 2.25 0 0 Z " fill="#C57849" transform="translate(141,150)"/>
<path d="M0 0 C0.66 0.66 1.32 1.32 2 2 C0.68 3.65 -0.64 5.3 -2 7 C-2 6.34 -2 5.68 -2 5 C-2.66 4.67 -3.32 4.34 -4 4 C-2.68 2.68 -1.36 1.36 0 0 Z " fill="#AC6940" transform="translate(161,108)"/>
</svg>
